<svg width="180" height="180" viewBox="0 0 40 40" fill="none" xmlns="http://www.w3.org/2000/svg">
<path fill-rule="evenodd" clip-rule="evenodd" d="M0 6.26667C0 2.80568 2.80568 0 6.26667 0H40V33.7333C40 37.1943 37.1943 40 33.7333 40H0V6.26667ZM35.0246 20.0014H33.7623L33.7299 27.1893L33.7262 27.8606L33.7123 29.7058L33.7077 30.148L33.7031 30.5415L33.6999 30.7795L33.698 30.8867L33.6948 31.0936L33.6892 31.3622L33.6874 31.4392L33.6837 31.5863L33.6818 31.6494L33.6777 31.7682L33.6758 31.8169L33.6716 31.9079L33.6652 32.0081L33.6629 32.0303L33.6582 32.0693L33.6559 32.0791L33.5884 32.3069L33.5329 32.4563L33.502 32.5249L33.4382 32.6572L33.4058 32.7119L33.3402 32.8126L33.3092 32.846L33.1525 32.9745L33.0207 33.0511L32.9426 33.0845L32.7789 33.1476L32.6869 33.1736L32.4955 33.2228L32.3915 33.2413L32.1774 33.2752L32.0632 33.2863L31.8311 33.3044L31.7095 33.3072L31.4631 33.3086L31.336 33.3026L31.0803 33.2868L30.9499 33.2719L30.5676 33.2139L30.3457 33.1638L30.2504 33.1318L30.0697 33.0627L29.9929 33.02L29.8487 32.9281L29.789 32.8725L29.6776 32.7546L29.6332 32.6845L29.5505 32.5361L29.5186 32.4498L29.4608 32.2679L29.4395 32.1626L29.4025 31.9431L29.3905 31.8183L29.3864 31.7455L29.3836 31.6684L29.3822 31.6165L29.3785 31.4346L29.3757 31.2885L29.3748 31.2035L29.372 31.0254L29.3711 30.9256L29.3674 30.6041L29.3651 30.3698L29.3558 28.9482L29.3545 28.6252L29.354 28.4573L29.3526 28.1172L29.3521 27.9418L29.3508 27.5869V27.4045L29.3494 26.8496L29.3484 26.0882L29.3471 20.0014H26.8043L26.7959 22.3301L26.7946 23.1388L26.7941 24.2356L26.7964 25.8785L26.8001 26.9327L26.8038 27.6913L26.8094 28.6364L26.8126 29.0804L26.8228 30.1462L26.8251 30.316L26.826 30.3958L26.8283 30.5526L26.8292 30.6259L26.8315 30.7688L26.8325 30.8347L26.8348 30.9627L26.8362 31.0212L26.8385 31.1335L26.8394 31.1841L26.8422 31.2801L26.8431 31.3223L26.8454 31.4017L26.8468 31.4346L26.8496 31.4963L26.8505 31.52L26.8533 31.5631L26.8547 31.577L26.9439 32.2461L27.0299 32.6692L27.0858 32.8683L27.1436 33.0645L27.176 33.1592L27.2421 33.3466L27.2782 33.4366L27.3526 33.6139L27.3933 33.6988L27.4756 33.8658L27.5199 33.9452L27.6133 34.0946L27.6892 34.2022L27.7326 34.2583L27.9199 34.488L28.0253 34.6012L28.2403 34.8239L28.3466 34.9195L28.452 35.0123L28.5024 35.0527L28.6013 35.1287L28.6466 35.1589L29.0345 35.3821L29.3198 35.5139L29.4719 35.57L29.783 35.6762L29.9448 35.718L30.2712 35.7946L30.4372 35.8205L30.4816 35.8261L30.5126 35.8289L30.5805 35.834L30.6222 35.8363L30.71 35.8405L30.7604 35.8419L30.8653 35.8451L30.9227 35.8465L31.1645 35.8507L31.2976 35.8512H31.5681L31.7049 35.8493L32.0096 35.8442L32.1816 35.8405L32.2546 35.8377L32.3929 35.8326L32.452 35.8294L32.5648 35.8219L32.6143 35.8173L32.7979 35.7955L32.8834 35.7783L32.9694 35.7602L33.0151 35.7491L33.1085 35.7254L33.1612 35.711L33.4682 35.6192L33.6638 35.55L33.7576 35.5115L33.9421 35.4317L34.0299 35.3877L34.2033 35.2967L34.2856 35.2475L34.4474 35.1459L34.5246 35.0907L34.6758 34.9775L34.7475 34.9167L34.888 34.7919L34.9546 34.7251L35.0845 34.5887L35.146 34.5158L35.2657 34.3674L35.3217 34.2885L35.4317 34.1275L35.483 34.0426L35.5829 33.8691L35.6291 33.7777L35.7197 33.5916L35.7614 33.4937L35.8423 33.2947L35.8792 33.1898L35.9509 32.9773L35.9833 32.8664L36.0462 32.6405L36.0743 32.5222L36.128 32.2827L36.1516 32.1575L36.1848 31.9691L36.1941 31.9041L36.1983 31.8684L36.2066 31.7942L36.2098 31.7515L36.2167 31.6624L36.22 31.6095L36.226 31.4991L36.2283 31.4337L36.2334 31.2954L36.2357 31.2142L36.2399 31.0425L36.2454 30.7317L36.2468 30.6097L36.2486 30.4844L36.2491 30.4176L36.2505 30.2802L36.2514 30.2065L36.2523 30.0561L36.2533 29.9759L36.2547 29.7244L36.256 29.5458L36.2852 20L35.0246 20.0014ZM18.549 20.0014L18.4894 20.1522L18.4727 20.2004L18.4579 20.2487L18.4482 20.2802L18.4172 20.3874L18.3937 20.4709L18.3257 20.7173L18.2337 21.0634L18.2027 21.1845L18.0497 21.7747L17.9965 21.9788L17.9674 22.0897L17.874 22.4479L17.8393 22.5792L17.7829 22.794L17.7626 22.8711L17.721 23.0293L17.653 23.2886L17.628 23.3824L17.5777 23.5744L17.4944 23.8895L17.4029 24.237L17.3701 24.3623L17.2656 24.7571L17.223 24.92L17.1717 25.1148L17.1338 25.2591L17.1135 25.3375L17.0714 25.4985L17.0492 25.5839L16.7552 26.71L16.653 27.1034L16.6031 27.2946L16.5051 27.6718L16.4602 27.8458L16.395 28.0972L16.3539 28.2541L16.3354 28.3265L16.2522 28.6494L16.2388 28.7009L16.2133 28.7997L16.193 28.8777L16.1819 28.9217L16.1061 29.214L15.8481 30.2023L15.7824 30.4547L15.7487 30.5828L15.6821 30.8379L15.6516 30.9562L15.6211 31.0718L15.6072 31.1256L15.5799 31.2295L15.5679 31.2759L15.4903 31.5738L15.4348 31.7844L15.408 31.8874L15.3543 32.0897L15.3308 32.1793L15.3076 32.2665L15.297 32.3059L15.2771 32.3806L15.2688 32.4127L15.2235 32.5834L15.1888 32.7152L15.1689 32.7899L15.1283 32.9453L15.1056 33.0325L15.0584 33.213L15.0326 33.3132L14.9789 33.5197L14.7898 34.2532L14.7533 34.3943L14.6793 34.6833L14.6391 34.8388L14.603 34.9896L14.5836 35.08L14.5767 35.1172L14.5656 35.1854L14.5633 35.2076L14.5619 35.2443L14.5651 35.2475L14.6128 35.2703L14.6761 35.2935L14.7214 35.3088L14.8203 35.3417L14.8809 35.3607L15.0085 35.4006L15.2304 35.4675L15.3113 35.4911L15.4755 35.5389L15.561 35.563L15.9091 35.6605L16.0783 35.7059L16.2374 35.7472L16.3127 35.7658L16.4597 35.8015L16.5235 35.8159L16.6433 35.8419L16.6877 35.8502L16.7293 35.8581L16.745 35.8604L16.7732 35.8642L16.782 35.8646L16.8291 35.8651L16.8555 35.8609L16.8675 35.8539L16.8902 35.8349L16.9013 35.8164L16.9239 35.7732L16.9359 35.7393L16.9618 35.6628L16.9923 35.5519L17.0007 35.519L17.0187 35.4498L17.0284 35.4104L17.0487 35.3283L17.1375 34.9562L17.168 34.8272L17.1847 34.7557L17.218 34.6147L17.3419 34.0955L17.402 33.8454L17.488 33.4891L17.5129 33.387L17.6359 32.8785L17.6632 32.7667L17.8051 32.1779L17.8347 32.0535L18.0187 31.2885L18.2679 30.2482L18.3151 30.0496L18.34 29.9466L18.3895 29.7402L18.4126 29.6427L18.4579 29.4534L18.4773 29.3736L18.5092 29.2405L18.5328 29.1398L18.5462 29.0846L18.6012 28.8517L18.6308 28.7255L18.6914 28.4694L18.721 28.3427L18.7797 28.0935L18.8056 27.9817L18.9725 27.2839L19.0257 27.0668L19.0488 26.9749L19.071 26.8863L19.0807 26.8478L19.0996 26.7754L19.107 26.7462L19.1597 26.5402L19.1999 26.3782L19.2208 26.2924L19.2624 26.1179L19.2818 26.0335L19.3202 25.8679L19.3923 25.5426L19.4362 25.3477L19.4598 25.2452L19.5065 25.0392L19.5291 24.9404L19.573 24.7474L19.5925 24.6643L19.7256 24.0454L19.8093 23.6176L19.8454 23.413L19.8805 23.2112L19.8962 23.1151L19.9258 22.9281L19.9383 22.8423L19.9614 22.6762L19.9706 22.6034L19.9864 22.4642L19.991 22.4071L20.0044 22.2865L20.0146 22.2178L20.0206 22.1899L20.0326 22.1389L20.0386 22.1204L20.0511 22.0883L20.0566 22.08L20.0687 22.0684L20.0737 22.0707L20.0835 22.0809L20.0876 22.0948L20.095 22.1287L20.0969 22.1547L20.1006 22.2131V22.2521L20.1098 22.479L20.1251 22.6553L20.1371 22.756L20.1639 22.9652L20.1819 23.0817L20.2208 23.323L20.2443 23.4547L20.2943 23.7262L20.3239 23.8732L20.3854 24.1739L20.42 24.3354L20.4931 24.6643L20.5333 24.8392L20.6165 25.1956L20.7626 25.7969L20.8315 26.0822L20.8639 26.2186L20.8962 26.3536L20.9115 26.4177L20.9411 26.5429L20.9549 26.6L20.9928 26.7601L21.0146 26.8529L21.0234 26.8914L21.083 27.1443L21.1269 27.3284L21.1491 27.4208L21.1935 27.6045L21.2138 27.688L21.2536 27.8481L21.2693 27.9121L21.2961 28.0202L21.3169 28.1028L21.328 28.1492L21.3757 28.3436L21.4542 28.6698L21.4801 28.7793L21.5319 28.9964L21.6309 29.4186L21.6863 29.6511L21.7136 29.7666L21.8167 30.199L21.8278 30.2445L21.8491 30.3327L21.9217 30.6352L21.9697 30.8365L21.9952 30.9414L22.0451 31.1525L22.0691 31.2532L22.1154 31.4481L22.1348 31.5311L22.1926 31.7752L22.2064 31.8332L22.2642 32.0767L22.2961 32.2094L22.4834 32.9926L22.6031 33.4905L22.8213 34.4045L22.9707 35.0364L22.9952 35.1394L23.0289 35.2851L23.0497 35.3733L23.059 35.4127L23.0765 35.4883L23.0839 35.5213L23.1043 35.6094L23.1149 35.6572L23.1191 35.6753L23.126 35.7083L23.1283 35.7185L23.1482 35.7904L23.1639 35.8252L23.1741 35.8368L23.1963 35.8563L23.2102 35.8618L23.2407 35.8688H23.2596L23.3165 35.8628L23.3734 35.853L23.4099 35.8456L23.4885 35.8294L23.5347 35.8191L23.6313 35.7969L23.685 35.7844L23.9143 35.7287L24.0423 35.6957L24.304 35.628L24.4376 35.5923L24.7039 35.5203L24.8283 35.4855L24.9513 35.4507L25.1205 35.4016L25.1713 35.3863L25.2689 35.357L25.3114 35.3436L25.3909 35.3181L25.4228 35.3069L25.4811 35.2865L25.501 35.2782L25.5343 35.2633L25.5403 35.2587L25.5694 35.2169L25.5717 35.1923L25.5703 35.1738L25.5652 35.1315L25.5592 35.1009L25.5449 35.0332L25.5343 34.9877L25.5093 34.887L25.4927 34.8221L25.4561 34.6819L25.3956 34.4527L25.3526 34.2917L25.3258 34.1901L25.305 34.1122L25.2939 34.0695L25.2462 33.8886L25.2208 33.7897L25.1681 33.5884L24.9434 32.7212L24.9184 32.627L24.8704 32.4419L24.8491 32.3621L24.8288 32.2841L24.8019 32.1844L24.795 32.1575L24.7687 32.0591L24.7349 31.9311L24.7095 31.8327L24.6656 31.6661L24.6503 31.6063L24.5851 31.3576L24.5514 31.2267L24.4829 30.9627L24.4501 30.8352L24.2735 30.1554L24.2393 30.0232L24.1889 29.8306L24.157 29.7096L24.1427 29.6539L24.1145 29.5467L24.102 29.4998L24.0779 29.4103L23.9226 28.8234L23.82 28.4332L23.7645 28.2211L23.7085 28.0063L23.679 27.894L23.5888 27.5456L23.4247 26.9127L23.3895 26.7754L23.3424 26.5926L23.2818 26.3592L23.2527 26.2483L23.1926 26.0173L23.1593 25.8887L22.9388 25.0415L22.3345 22.7305L22.1154 21.8898L22.0502 21.6392L22.0206 21.526L21.9642 21.3089L21.9401 21.2156L21.9166 21.1247L21.9059 21.0838L21.8851 21.005L21.8763 20.9697L21.8592 20.9034L21.8518 20.8751L21.838 20.8217L21.8329 20.8008L21.7672 20.5544L21.7256 20.4032L21.7067 20.3387L21.6711 20.2195L21.6572 20.1772L21.6438 20.1383L21.6387 20.1243L21.629 20.0993L21.6258 20.0933L21.605 20.0636L21.5842 20.0478L21.5671 20.0413L21.5268 20.0297L21.4959 20.0251L21.4251 20.0172L21.3743 20.0139L21.3211 20.0111L21.2901 20.0102L21.2245 20.0079L21.187 20.007L21.108 20.0056L21.0631 20.0046L20.9697 20.0037L20.807 20.0023H20.7455L20.6184 20.0019H20.5476L20.4011 20.0014H18.549ZM3.75737 20.0246L14.8777 20.0009L14.8532 22.5764L11.2239 22.6006V33.039H13.3404L13.3728 34.0714L13.377 34.2133L13.3839 34.4903L13.3871 34.6258L13.3918 34.926L13.3931 35.0786V35.164L13.3927 35.2044L13.3918 35.2679L13.3894 35.3357L13.3737 35.5677L8.6349 35.5918V22.5996H6.27704V24.8267H3.73333L3.75737 20.0246ZM20.1112 36.8619C20.8844 36.8619 21.5112 36.2351 21.5112 35.4619C21.5112 34.6887 20.8844 34.0619 20.1112 34.0619C19.338 34.0619 18.7112 34.6887 18.7112 35.4619C18.7112 36.2351 19.338 36.8619 20.1112 36.8619Z" fill="#77BF43"/>
</svg>
