<svg width="40" height="40" viewBox="0 0 40 40" fill="none" xmlns="http://www.w3.org/2000/svg">
<path d="M20 0C31.0457 0 40 8.9543 40 20C40 31.0457 31.0457 40 20 40C8.9543 40 0 31.0457 0 20C0 8.9543 8.9543 0 20 0ZM14.0527 9C11.8145 9 10 10.8145 10 13.0527C10 15.258 11.7615 17.0502 13.9541 17.1025L15.1211 21.167C13.4544 22.0361 12.3166 23.7794 12.3164 25.7891C12.3164 28.6667 14.6488 30.9999 17.5264 31C20.4041 31 22.7373 28.6668 22.7373 25.7891C22.7373 25.3888 22.69 24.9994 22.6045 24.625L25.2109 23.3008C25.8036 23.7711 26.5528 24.0527 27.3682 24.0527C29.2866 24.0527 30.8417 22.4975 30.8418 20.5791C30.8418 18.6606 29.2866 17.1055 27.3682 17.1055C25.4497 17.1055 23.8945 18.6606 23.8945 20.5791C23.8945 20.837 23.9232 21.0882 23.9766 21.3301L21.5967 22.5391C20.6419 21.345 19.1741 20.5791 17.5264 20.5791C17.4715 20.5791 17.4168 20.5813 17.3623 20.583L16.1885 16.4951C17.3386 15.78 18.1054 14.5066 18.1055 13.0527C18.1055 10.8146 16.2909 9.00006 14.0527 9Z" fill="#3E6CFF"/>
</svg>
