<svg width="256" height="256" viewBox="0 0 256 256" fill="none" xmlns="http://www.w3.org/2000/svg">
<path d="M128 58C166.66 58 198 89.3401 198 128C198 166.66 166.66 198 128 198C89.3401 198 58 166.66 58 128C58 89.3401 89.3401 58 128 58ZM107.185 89.5C99.3508 89.5 93 95.8508 93 103.685C93.0002 111.403 99.1658 117.682 106.841 117.864L110.922 132.083C105.089 135.125 101.106 141.229 101.106 148.264C101.107 158.335 109.271 166.5 119.343 166.5C129.415 166.5 137.58 158.335 137.58 148.264C137.58 146.862 137.42 145.497 137.121 144.187L146.24 139.554C148.314 141.199 150.936 142.185 153.789 142.185C160.503 142.184 165.946 136.741 165.946 130.026C165.946 123.312 160.503 117.868 153.789 117.868C147.074 117.868 141.631 123.312 141.631 130.026C141.631 130.93 141.73 131.811 141.917 132.658L133.596 136.887C130.254 132.706 125.111 130.026 119.343 130.026C119.15 130.026 118.959 130.03 118.768 130.036L114.663 115.737C118.688 113.235 121.368 108.773 121.368 103.685C121.368 95.851 115.018 89.5002 107.185 89.5Z" fill="#3E6CFF"/>
</svg>
