<svg width="256" height="256" viewBox="0 0 256 256" fill="none" xmlns="http://www.w3.org/2000/svg">
<path fill-rule="evenodd" clip-rule="evenodd" d="M58 79.9333C58 67.8199 67.8199 58 79.9333 58H198V176.067C198 188.18 188.18 198 176.067 198H58V79.9333ZM180.586 128.005H176.168L176.055 153.162L176.042 155.512L175.993 161.97L175.977 163.518L175.961 164.895L175.949 165.728L175.943 166.103L175.932 166.828L175.912 167.768L175.906 168.037L175.893 168.552L175.886 168.773L175.872 169.189L175.865 169.359L175.851 169.677L175.828 170.028L175.82 170.106L175.804 170.243L175.796 170.277L175.559 171.074L175.365 171.597L175.257 171.837L175.034 172.3L174.92 172.492L174.691 172.844L174.582 172.961L174.034 173.411L173.572 173.679L173.299 173.796L172.726 174.017L172.404 174.108L171.734 174.28L171.37 174.345L170.621 174.463L170.221 174.502L169.409 174.565L168.983 174.575L168.121 174.58L167.676 174.559L166.781 174.504L166.325 174.452L164.987 174.249L164.21 174.073L163.877 173.961L163.244 173.719L162.975 173.57L162.47 173.248L162.262 173.054L161.872 172.641L161.716 172.396L161.427 171.876L161.315 171.574L161.113 170.938L161.038 170.569L160.909 169.801L160.867 169.364L160.852 169.109L160.843 168.84L160.838 168.658L160.825 168.021L160.815 167.51L160.812 167.212L160.802 166.589L160.799 166.24L160.786 165.114L160.778 164.294L160.745 159.319L160.741 158.188L160.739 157.601L160.734 156.41L160.732 155.796L160.728 154.554V153.916L160.723 151.974L160.72 149.309L160.715 128.005H151.815L151.786 136.155L151.781 138.986L151.779 142.825L151.787 148.575L151.8 152.264L151.813 154.919L151.833 158.227L151.844 159.781L151.88 163.512L151.888 164.106L151.891 164.385L151.899 164.934L151.902 165.191L151.91 165.691L151.914 165.921L151.922 166.37L151.927 166.574L151.935 166.967L151.938 167.144L151.948 167.48L151.951 167.628L151.959 167.906L151.964 168.021L151.974 168.237L151.977 168.32L151.986 168.471L151.991 168.52L152.304 170.861L152.605 172.342L152.8 173.039L153.003 173.726L153.116 174.057L153.347 174.713L153.474 175.028L153.734 175.649L153.876 175.946L154.164 176.53L154.32 176.808L154.647 177.331L154.912 177.708L155.064 177.904L155.72 178.708L156.088 179.104L156.841 179.884L157.213 180.218L157.582 180.543L157.758 180.684L158.105 180.951L158.263 181.056L159.621 181.837L160.619 182.298L161.152 182.495L162.241 182.867L162.807 183.013L163.949 183.281L164.53 183.372L164.686 183.391L164.794 183.401L165.032 183.419L165.178 183.427L165.485 183.442L165.661 183.447L166.029 183.458L166.229 183.463L167.076 183.477L167.542 183.479H168.488L168.967 183.473L170.034 183.455L170.635 183.442L170.891 183.432L171.375 183.414L171.582 183.403L171.977 183.377L172.15 183.361L172.792 183.284L173.092 183.224L173.393 183.161L173.553 183.122L173.88 183.039L174.064 182.989L175.139 182.667L175.823 182.425L176.152 182.29L176.797 182.011L177.105 181.857L177.712 181.538L178 181.366L178.566 181.011L178.836 180.817L179.365 180.421L179.616 180.209L180.108 179.772L180.341 179.538L180.796 179.06L181.011 178.805L181.43 178.286L181.626 178.01L182.011 177.446L182.191 177.149L182.54 176.542L182.702 176.222L183.019 175.571L183.165 175.228L183.448 174.531L183.577 174.164L183.828 173.421L183.941 173.032L184.162 172.242L184.26 171.828L184.448 170.99L184.53 170.551L184.647 169.892L184.679 169.665L184.694 169.539L184.723 169.28L184.734 169.13L184.759 168.818L184.77 168.633L184.791 168.247L184.799 168.018L184.817 167.534L184.825 167.25L184.84 166.649L184.859 165.561L184.864 165.134L184.87 164.695L184.872 164.462L184.877 163.981L184.88 163.723L184.883 163.196L184.886 162.916L184.891 162.035L184.896 161.41L184.998 128L180.586 128.005ZM122.921 128.005L122.713 128.533L122.654 128.702L122.603 128.87L122.569 128.981L122.46 129.356L122.378 129.648L122.14 130.511L121.818 131.722L121.709 132.146L121.174 134.211L120.988 134.926L120.886 135.314L120.559 136.568L120.438 137.027L120.24 137.779L120.169 138.049L120.023 138.602L119.786 139.51L119.698 139.838L119.522 140.511L119.231 141.613L118.91 142.829L118.795 143.268L118.43 144.65L118.281 145.22L118.101 145.902L117.968 146.407L117.897 146.681L117.75 147.245L117.672 147.544L116.643 151.485L116.285 152.862L116.111 153.531L115.768 154.851L115.611 155.46L115.383 156.34L115.239 156.889L115.174 157.143L114.883 158.273L114.836 158.453L114.747 158.799L114.675 159.072L114.637 159.226L114.371 160.249L113.468 163.708L113.239 164.591L113.12 165.04L112.887 165.933L112.781 166.347L112.674 166.751L112.625 166.94L112.53 167.303L112.488 167.466L112.216 168.508L112.022 169.246L111.928 169.606L111.74 170.314L111.658 170.627L111.577 170.933L111.539 171.071L111.47 171.332L111.441 171.444L111.282 172.042L111.161 172.503L111.091 172.765L110.949 173.309L110.87 173.614L110.705 174.246L110.614 174.596L110.426 175.319L109.764 177.886L109.637 178.38L109.378 179.392L109.237 179.936L109.111 180.463L109.043 180.78L109.018 180.91L108.98 181.149L108.972 181.227L108.967 181.355L108.978 181.366L109.145 181.446L109.366 181.527L109.525 181.581L109.871 181.696L110.083 181.763L110.53 181.902L111.306 182.136L111.59 182.219L112.164 182.386L112.463 182.471L113.682 182.812L114.274 182.971L114.831 183.115L115.095 183.18L115.609 183.305L115.832 183.356L116.252 183.447L116.407 183.476L116.552 183.503L116.608 183.512L116.706 183.525L116.737 183.526L116.902 183.528L116.994 183.513L117.036 183.489L117.116 183.422L117.154 183.357L117.234 183.206L117.276 183.088L117.366 182.82L117.473 182.432L117.502 182.316L117.565 182.074L117.599 181.936L117.671 181.649L117.981 180.347L118.088 179.895L118.146 179.645L118.263 179.151L118.697 177.334L118.907 176.459L119.208 175.212L119.295 174.854L119.726 173.075L119.821 172.683L120.318 170.623L120.421 170.187L121.065 167.51L121.938 163.869L122.103 163.174L122.19 162.813L122.363 162.091L122.444 161.75L122.603 161.087L122.671 160.808L122.782 160.342L122.865 159.989L122.912 159.796L123.104 158.981L123.208 158.539L123.42 157.643L123.523 157.199L123.729 156.327L123.82 155.936L124.404 153.494L124.59 152.734L124.671 152.412L124.748 152.102L124.782 151.967L124.849 151.714L124.875 151.612L125.059 150.891L125.2 150.324L125.273 150.023L125.418 149.413L125.486 149.117L125.621 148.538L125.873 147.399L126.027 146.717L126.109 146.358L126.273 145.637L126.352 145.291L126.506 144.616L126.574 144.325L127.04 142.159L127.333 140.662L127.459 139.945L127.582 139.239L127.637 138.903L127.74 138.248L127.784 137.948L127.865 137.367L127.897 137.112L127.952 136.625L127.968 136.425L128.015 136.003L128.051 135.762L128.072 135.665L128.114 135.486L128.135 135.421L128.179 135.309L128.198 135.28L128.24 135.239L128.258 135.247L128.292 135.283L128.307 135.332L128.333 135.45L128.339 135.541L128.352 135.746V135.882L128.384 136.677L128.438 137.294L128.48 137.646L128.574 138.378L128.637 138.786L128.773 139.63L128.855 140.092L129.03 141.042L129.134 141.556L129.349 142.609L129.47 143.174L129.726 144.325L129.867 144.937L130.158 146.184L130.669 148.289L130.91 149.288L131.023 149.765L131.137 150.238L131.19 150.462L131.294 150.9L131.342 151.1L131.475 151.66L131.551 151.985L131.582 152.12L131.79 153.005L131.944 153.65L132.022 153.973L132.177 154.616L132.248 154.908L132.388 155.468L132.443 155.692L132.536 156.071L132.609 156.36L132.648 156.522L132.815 157.203L133.09 158.344L133.18 158.728L133.362 159.487L133.708 160.965L133.902 161.779L133.998 162.183L134.358 163.697L134.397 163.856L134.472 164.164L134.726 165.223L134.894 165.928L134.983 166.295L135.158 167.034L135.242 167.386L135.404 168.068L135.472 168.359L135.674 169.213L135.723 169.416L135.925 170.269L136.036 170.733L136.692 173.474L137.111 175.217L137.875 178.416L138.397 180.627L138.483 180.988L138.601 181.498L138.674 181.806L138.706 181.944L138.768 182.209L138.794 182.324L138.865 182.633L138.902 182.8L138.917 182.864L138.941 182.979L138.949 183.015L139.019 183.266L139.074 183.388L139.109 183.429L139.187 183.497L139.236 183.516L139.342 183.541H139.409L139.608 183.52L139.807 183.486L139.935 183.46L140.21 183.403L140.371 183.367L140.71 183.289L140.897 183.245L141.7 183.05L142.148 182.935L143.064 182.698L143.532 182.573L144.464 182.321L144.899 182.199L145.329 182.078L145.922 181.905L146.1 181.852L146.441 181.75L146.59 181.702L146.868 181.613L146.98 181.574L147.184 181.503L147.253 181.474L147.37 181.422L147.391 181.405L147.493 181.259L147.501 181.173L147.496 181.108L147.478 180.96L147.457 180.853L147.407 180.616L147.37 180.457L147.283 180.105L147.224 179.877L147.096 179.387L146.884 178.585L146.734 178.021L146.64 177.665L146.567 177.393L146.528 177.243L146.362 176.61L146.273 176.264L146.088 175.559L145.302 172.524L145.215 172.195L145.046 171.547L144.972 171.267L144.901 170.994L144.807 170.645L144.783 170.551L144.69 170.207L144.572 169.759L144.483 169.414L144.329 168.831L144.276 168.622L144.048 167.752L143.93 167.294L143.69 166.37L143.575 165.923L142.957 163.544L142.838 163.081L142.661 162.407L142.549 161.983L142.499 161.789L142.401 161.413L142.357 161.249L142.273 160.936L141.729 158.882L141.37 157.516L141.176 156.774L140.98 156.022L140.876 155.629L140.561 154.41L139.986 152.195L139.863 151.714L139.698 151.074L139.486 150.257L139.384 149.869L139.174 149.06L139.058 148.611L138.286 145.645L136.171 137.557L135.404 134.614L135.176 133.737L135.072 133.341L134.875 132.581L134.791 132.255L134.708 131.936L134.671 131.793L134.598 131.517L134.567 131.394L134.507 131.162L134.481 131.063L134.433 130.876L134.415 130.803L134.185 129.941L134.04 129.411L133.973 129.185L133.849 128.768L133.8 128.62L133.753 128.484L133.735 128.435L133.702 128.348L133.69 128.326L133.617 128.222L133.545 128.167L133.485 128.145L133.344 128.104L133.235 128.088L132.988 128.06L132.81 128.049L132.624 128.039L132.515 128.036L132.286 128.028L132.155 128.024L131.878 128.019L131.721 128.016L131.394 128.013L130.824 128.008H130.609L130.164 128.007H129.917L129.404 128.005H122.921ZM71.1508 128.086L110.072 128.003L109.986 137.018L97.2837 137.102V173.637H104.692L104.805 177.25L104.819 177.747L104.844 178.716L104.855 179.19L104.871 180.241L104.876 180.775V181.074L104.874 181.215L104.871 181.438L104.863 181.675L104.808 182.487L88.2221 182.571V137.099H79.9696V144.893H71.0666L71.1508 128.086ZM128.389 187.017C131.095 187.017 133.289 184.823 133.289 182.117C133.289 179.41 131.095 177.217 128.389 177.217C125.683 177.217 123.489 179.41 123.489 182.117C123.489 184.823 125.683 187.017 128.389 187.017Z" fill="#77BF43"/>
</svg>
