<?xml version="1.0"?>
<svg width="256" height="256" viewBox="0 0 40 40" xmlns="http://www.w3.org/2000/svg" xmlns:svg="http://www.w3.org/2000/svg" xmlns:xlink="http://www.w3.org/1999/xlink">
 <g class="layer">
   <circle cx="20" cy="20" fill="url(#svg_5)" r="20"/>
   <path d="m26.31,19.02c0,0.34 -0.42,0.52 -0.67,0.27l-0.24,-0.24l-1.66,-1.66c-0.15,-0.15 -0.15,-0.38 -0.02,-0.53c0.01,-0.01 0.01,-0.02 0.02,-0.02l1.9,-1.9c0.25,-0.25 0.67,-0.07 0.67,0.27l0,3.81zm-1.51,-10.02l-10.32,10.29c-0.24,0.25 -0.66,0.07 -0.66,-0.27l0,-10.02l-4.81,0l0,21.87c1.9,0 0,0 1.9,0l8.88,-10.09c0,0 0.01,-0.01 0.01,-0.01c0.16,-0.14 0.39,-0.13 0.54,0.01l1.66,1.66l7.22,8.43c1.9,0 0,0 1.9,0l0,-21.87l-6.32,0z" fill="white"/>
   <path d="m23.72,16.86c-0.1,0.12 -0.12,0.28 -0.07,0.41c0.02,0.05 0.05,0.09 0.09,0.13l1.58,1.58l-3.41,3.38l-1.57,-1.57c-0.08,-0.08 -0.18,-0.11 -0.28,-0.11l0,0l0,0c-0.08,0 -0.16,0.02 -0.22,0.07c-0.02,0.01 -0.03,0.01 -0.04,0.03l3.92,-3.92z" fill="#EDE1F9"/>
 </g>
</svg>