/* XPM */
static char *product_logo_32_xpm[] = {
/* columns rows colors chars-per-pixel */
"32 32 32 1 ",
"  c None",
". c #3E6BFF",
"X c #3F6BFF",
"o c #3D6DFF",
"O c #3E6CFF",
"+ c #3E6DFF",
"@ c #4A75FF",
"# c #4A76FF",
"$ c #567EFF",
"% c #567FFF",
"& c #6287FF",
"* c #6288FF",
"= c #6E90FF",
"- c #6E91FF",
"; c #7A9AFF",
": c #86A3FF",
"> c #9EB5FF",
", c #9FB5FF",
"< c #9EB6FF",
"1 c #AABEFF",
"2 c #ABBEFF",
"3 c #AABFFF",
"4 c #B7C7FF",
"5 c #B6C8FF",
"6 c #B7C8FF",
"7 c #C3D1FF",
"8 c #CFDAFF",
"9 c #DBE3FF",
"0 c #E7ECFF",
"q c #E7EDFF",
"w c #F3F6FF",
"e c white",
/* pixels */
"            ++++++++            ",
"         ++++++++.+++++         ",
"       ++++++++++.+++++++       ",
"      .++++++++++++++++++.      ",
"     .+++++++++++++++++.++.     ",
"    .++++++++++++++++++.+++.    ",
"   .++++++++++++.++++++.++++.   ",
"  +++++++=786@++++++++++++++++  ",
"  ++++++:eeee9++++++++++++++++  ",
" .++++++qeeeee;++++++.+++++++++ ",
" +++++++eeeeee>++++++++++++++++ ",
" ++++.++8eeeee;++++++++++++++++ ",
".+++++++=eeee7++++++++++++++++++",
"+++++++++$1we@++++++@;=++++.++..",
"+++++++++++1e;+++++$qee9@+++++++",
"+++++++++++;e1+++++8eeee>+++++++",
"+++++++++++@ew>=+++qeeee6+++++++",
"++++++..+++4eeee6$>eeeee:++++++.",
"++++++++++1eeeeeeeewqee8+++++++.",
".+++++++++weeeeeee1@+=*+++++++++",
" ++++++++$eeeeeeee&++++++++++++ ",
" ++++++++@eeeeeeee@++++++++++++ ",
" +++++..++8eeeeee8+++++++++++++ ",
"  ++++++++$qeeeeq$++++++++++++  ",
"  +++++++++$>88>@+++++++++++++  ",
"   .++++++++++++++++++++++++.   ",
"    .++++++++++++++++++++++.    ",
"     .+++++++++++++++++++..     ",
"      .++++++++++++++++++.      ",
"       ++++++++++++++++++       ",
"         .+++++++++++++         ",
"            .+++++++            "
};
